<?xml version="1.0" encoding="UTF-8"?>
<svg version="1.1" xmlns="http://www.w3.org/2000/svg" width="512" height="512">
<path d="M0 0 C6.52984143 5.30549616 9.92921656 11.40483717 12.5625 19.3046875 C13.35381511 31.14397889 12.32590663 39.96176853 4.6484375 49.2265625 C-2.13629399 55.98588301 -10.33833999 59.2023819 -19.8125 59.6171875 C-29.76278878 59.32604308 -37.17251403 55.49804101 -44.16015625 48.60546875 C-50.459218 41.71828822 -52.80207104 34.02582132 -52.6484375 24.76171875 C-51.86413535 15.6260511 -48.03599328 7.28094242 -41.0703125 1.2578125 C-28.6795555 -7.85636134 -12.85904709 -8.94363211 0 0 Z " fill="#FE6787" transform="translate(318.4375,186.6953125)"/>
<path d="M0 0 C6.72127605 5.94957398 10.66712614 13.13199191 11.35546875 22.05859375 C11.72299581 32.38276294 10.03046506 39.62296127 3.484375 47.6796875 C-2.19619019 53.69002332 -9.52596207 57.49374376 -17.80859375 58.0703125 C-28.32810172 58.22112982 -35.60297231 56.75612522 -43.8125 49.953125 C-50.57182051 43.16839351 -53.7883194 34.96634751 -54.203125 25.4921875 C-53.91198058 15.54189872 -50.08397851 8.13217347 -43.19140625 1.14453125 C-30.76264957 -10.2228934 -13.35241027 -9.51714349 0 0 Z " fill="#FE7788" transform="translate(319.890625,273.1328125)"/>
<path d="M0 0 C8.75644589 4.59139485 14.34147637 10.96080271 17.89453125 20.1953125 C20.34646906 28.68409031 19.54894237 37.03510332 16.0859375 45.09375 C10.85293988 54.02156108 3.61680107 59.91376318 -6.2890625 62.78125 C-16.8478422 64.03824758 -26.03503154 62.21164973 -34.8046875 55.9609375 C-41.52596355 50.01136352 -45.47181364 42.82894559 -46.16015625 33.90234375 C-46.52768331 23.57817456 -44.83515256 16.33797623 -38.2890625 8.28125 C-28.64371772 -1.9431774 -13.12921715 -5.27120986 0 0 Z " fill="#FE6787" transform="translate(226.9140625,182.90625)"/>
<path d="M0 0 C7.25707503 5.93760684 12.60879954 12.66391614 13.75 22.25 C14.53466881 31.83827012 12.21700551 40.2841639 6.6171875 48.140625 C0.75581784 54.76225599 -6.38250593 58.75778678 -15.18359375 59.49609375 C-25.22695006 59.88647156 -33.24861994 58.04567946 -41.125 51.625 C-46.65560193 46.3421849 -50.93556976 38.95436018 -51.453125 31.2109375 C-51.59570846 20.30330276 -50.39570399 12.84750566 -43.3359375 4.328125 C-31.75595781 -7.20848398 -13.51742552 -9.62955646 0 0 Z " fill="#FE7788" transform="translate(232.25,271.75)"/>
<path d="M0 0 C4.51595159 3.79750475 9.28342706 8.90913003 10 15 C10.4891914 22.33787096 9.51075768 28.01423411 4.6875 33.75 C-1.50923987 38.93796827 -5.73187929 41.35086236 -13.84765625 41.21484375 C-20.32579351 40.56820573 -24.82139544 37.991111 -29 33 C-33.41867079 26.98569809 -34.74662443 22.47981929 -34 15 C-32.33419903 7.87771713 -28.8082004 4.06316764 -22.9375 -0.25 C-15.64069078 -4.59703528 -7.36855671 -3.96158963 0 0 Z " fill="#FF8889" transform="translate(396,365)"/>
<path d="M0 0 C4.51595159 3.79750475 9.28342706 8.90913003 10 15 C10.4891914 22.33787096 9.51075768 28.01423411 4.6875 33.75 C-1.50923987 38.93796827 -5.73187929 41.35086236 -13.84765625 41.21484375 C-20.32579351 40.56820573 -24.82139544 37.991111 -29 33 C-33.41867079 26.98569809 -34.74662443 22.47981929 -34 15 C-32.33419903 7.87771713 -28.8082004 4.06316764 -22.9375 -0.25 C-15.64069078 -4.59703528 -7.36855671 -3.96158963 0 0 Z " fill="#FF8889" transform="translate(140,365)"/>
<path d="M0 0 C4.51595159 3.79750475 9.28342706 8.90913003 10 15 C10.4891914 22.33787096 9.51075768 28.01423411 4.6875 33.75 C-1.50923987 38.93796827 -5.73187929 41.35086236 -13.84765625 41.21484375 C-20.32579351 40.56820573 -24.82139544 37.991111 -29 33 C-33.41867079 26.98569809 -34.74662443 22.47981929 -34 15 C-32.33419903 7.87771713 -28.8082004 4.06316764 -22.9375 -0.25 C-15.64069078 -4.59703528 -7.36855671 -3.96158963 0 0 Z " fill="#FD5786" transform="translate(396,109)"/>
<path d="M0 0 C4.51595159 3.79750475 9.28342706 8.90913003 10 15 C10.4891914 22.33787096 9.51075768 28.01423411 4.6875 33.75 C-1.50923987 38.93796827 -5.73187929 41.35086236 -13.84765625 41.21484375 C-20.32579351 40.56820573 -24.82139544 37.991111 -29 33 C-33.41867079 26.98569809 -34.74662443 22.47981929 -34 15 C-32.33419903 7.87771713 -28.8082004 4.06316764 -22.9375 -0.25 C-15.64069078 -4.59703528 -7.36855671 -3.96158963 0 0 Z " fill="#FD5786" transform="translate(140,109)"/>
<path d="M0 0 C4.58145041 2.90469037 8.12684957 7.29323353 10.11328125 12.33984375 C10.97694355 19.72188361 11.24061599 26.62392031 6.6015625 32.7265625 C1.51563322 38.23965644 -3.03914286 40.95508616 -10.63671875 41.71484375 C-16.54717366 41.52235767 -22.29563697 39.58971311 -26.78515625 35.69140625 C-32.14106031 29.70846951 -33.35533552 24.29009703 -33.19921875 16.34765625 C-32.57840423 10.37231648 -30.27913394 6.76390474 -26.13671875 2.52734375 C-17.61977045 -3.20521761 -9.39712202 -4.56060671 0 0 Z " fill="#FF888A" transform="translate(309.88671875,364.66015625)"/>
<path d="M0 0 C4.66634793 4.05184944 7.59854379 8.61563081 8.3359375 14.83203125 C8.4227458 21.45550454 8.05029573 26.59121999 4 32 C-1.24900959 37.36830526 -6.59619901 39.62179989 -13.9375 40.4375 C-19.56237669 40.17227988 -24.67947597 38.13250716 -28.83203125 34.31640625 C-34.51079798 27.89152418 -35.51296418 23.09480035 -35.37890625 14.48828125 C-34.68878205 8.13486978 -31.66047551 4.33475594 -27.0625 0.125 C-18.26486968 -5.97947818 -9.02106338 -5.15920347 0 0 Z " fill="#FF888A" transform="translate(227,366)"/>
<path d="M0 0 C5.65842186 3.35748683 9.01834623 8.14105438 11.0546875 14.30859375 C12.61328751 20.65089687 11.70385218 25.48921562 8.90234375 31.26171875 C5.99765338 35.84316916 1.60911022 39.38856832 -3.4375 41.375 C-10.81953986 42.2386623 -17.72157656 42.50233474 -23.82421875 37.86328125 C-29.33731269 32.77735197 -32.05274241 28.22257589 -32.8125 20.625 C-32.62001392 14.71454509 -30.68736936 8.96608178 -26.7890625 4.4765625 C-19.38125262 -2.15488303 -9.29654974 -4.24177174 0 0 Z " fill="#FE7888" transform="translate(394.4375,278.625)"/>
<path d="M0 0 C5.65842186 3.35748683 9.01834623 8.14105438 11.0546875 14.30859375 C12.61328751 20.65089687 11.70385218 25.48921562 8.90234375 31.26171875 C5.99765338 35.84316916 1.60911022 39.38856832 -3.4375 41.375 C-10.81953986 42.2386623 -17.72157656 42.50233474 -23.82421875 37.86328125 C-29.33731269 32.77735197 -32.05274241 28.22257589 -32.8125 20.625 C-32.62001392 14.71454509 -30.68736936 8.96608178 -26.7890625 4.4765625 C-19.38125262 -2.15488303 -9.29654974 -4.24177174 0 0 Z " fill="#FE7888" transform="translate(138.4375,278.625)"/>
<path d="M0 0 C5.30020616 3.15174783 9.22263819 7.33459586 11.79296875 12.96484375 C13.52331869 20.83007076 12.47917854 27.09794769 8.48046875 34.08984375 C4.42861931 38.75619168 -0.13516206 41.68838754 -6.3515625 42.42578125 C-12.97503579 42.51258955 -18.11075124 42.14013948 -23.51953125 38.08984375 C-28.88783651 32.84083416 -31.14133114 27.49364474 -31.95703125 20.15234375 C-31.69181113 14.52746706 -29.65203841 9.41036778 -25.8359375 5.2578125 C-18.45660835 -1.26456229 -9.64671512 -3.48478236 0 0 Z " fill="#FE6787" transform="translate(393.51953125,192.91015625)"/>
<path d="M0 0 C5.30020616 3.15174783 9.22263819 7.33459586 11.79296875 12.96484375 C13.52331869 20.83007076 12.47917854 27.09794769 8.48046875 34.08984375 C4.42861931 38.75619168 -0.13516206 41.68838754 -6.3515625 42.42578125 C-12.97503579 42.51258955 -18.11075124 42.14013948 -23.51953125 38.08984375 C-28.88783651 32.84083416 -31.14133114 27.49364474 -31.95703125 20.15234375 C-31.69181113 14.52746706 -29.65203841 9.41036778 -25.8359375 5.2578125 C-18.45660835 -1.26456229 -9.64671512 -3.48478236 0 0 Z " fill="#FE6787" transform="translate(137.51953125,192.91015625)"/>
<path d="M0 0 C4.58145041 2.90469037 8.12684957 7.29323353 10.11328125 12.33984375 C10.97694355 19.72188361 11.24061599 26.62392031 6.6015625 32.7265625 C1.51563322 38.23965644 -3.03914286 40.95508616 -10.63671875 41.71484375 C-16.54717366 41.52235767 -22.29563697 39.58971311 -26.78515625 35.69140625 C-32.14106031 29.70846951 -33.35533552 24.29009703 -33.19921875 16.34765625 C-32.57840423 10.37231648 -30.27913394 6.76390474 -26.13671875 2.52734375 C-17.61977045 -3.20521761 -9.39712202 -4.56060671 0 0 Z " fill="#FD5786" transform="translate(309.88671875,108.66015625)"/>
<path d="M0 0 C4.66634793 4.05184944 7.59854379 8.61563081 8.3359375 14.83203125 C8.4227458 21.45550454 8.05029573 26.59121999 4 32 C-1.24900959 37.36830526 -6.59619901 39.62179989 -13.9375 40.4375 C-19.56237669 40.17227988 -24.67947597 38.13250716 -28.83203125 34.31640625 C-34.51079798 27.89152418 -35.51296418 23.09480035 -35.37890625 14.48828125 C-34.68878205 8.13486978 -31.66047551 4.33475594 -27.0625 0.125 C-18.26486968 -5.97947818 -9.02106338 -5.15920347 0 0 Z " fill="#FD5786" transform="translate(227,110)"/>
<path d="M0 0 C3.42215793 1.92885265 5.46291808 3.33142526 6.6953125 7.16015625 C7.28313201 10.90594227 7.27215819 13.34109071 5.8125 16.875 C2.60247767 20.63847445 1.2135049 21.86299138 -3.875 22.4375 C-8.14255061 22.28594213 -10.70519103 20.73228061 -14 18 C-15.84995114 14.30009772 -15.46986842 10.03832859 -15 6 C-11.479187 0.0510401 -6.67571461 -1.07063348 0 0 Z " fill="#FF958C" transform="translate(303,437)"/>
<path d="M0 0 C3.58552881 1.63687185 4.79315055 2.68972583 7 6 C7.54602034 9.39107371 7.54627924 12.60874176 7 16 C4.80977082 18.82424288 3.16982793 20.41508603 0 22 C-4.93378393 22.49337839 -7.06919235 22.52463704 -11.4375 20.0625 C-14.73518395 16.12136552 -15.40632045 13.07900568 -15 8 C-12.10131796 0.98213822 -7.40154764 -1.10361048 0 0 Z " fill="#FF958B" transform="translate(217,437)"/>
<path d="M0 0 C2.82424288 2.19022918 4.41508603 3.83017207 6 7 C6.49337839 11.93378393 6.52463704 14.06919235 4.0625 18.4375 C0.12136552 21.73518395 -2.92099432 22.40632045 -8 22 C-11.68514299 20.47787572 -14.16974759 18.56417575 -16 15 C-16.5104392 9.64038844 -16.4594433 6.35633601 -13 2 C-8.7741215 -0.81725233 -4.96375312 -0.79958384 0 0 Z " fill="#FE7789" transform="translate(453,288)"/>
<path d="M0 0 C2.82424288 2.19022918 4.41508603 3.83017207 6 7 C6.49337839 11.93378393 6.52463704 14.06919235 4.0625 18.4375 C0.12136552 21.73518395 -2.92099432 22.40632045 -8 22 C-11.68514299 20.47787572 -14.16974759 18.56417575 -16 15 C-16.5104392 9.64038844 -16.4594433 6.35633601 -13 2 C-8.7741215 -0.81725233 -4.96375312 -0.79958384 0 0 Z " fill="#FE7789" transform="translate(69,288)"/>
<path d="M0 0 C2.92221654 2.44511996 4.59524857 4.18223242 5.4375 7.96484375 C5.74806058 13.02115811 4.26671229 16.0607293 1 20 C-2.69990228 21.84995114 -6.96167141 21.46986842 -11 21 C-14.55680172 18.89495409 -15.69468936 17.91593192 -17 14 C-17.46632277 9.25905184 -17.73805951 6.3550875 -14.6875 2.5625 C-10.18459828 -1.73096443 -5.7697888 -1.61675343 0 0 Z " fill="#FE6787" transform="translate(454,203)"/>
<path d="M0 0 C2.92221654 2.44511996 4.59524857 4.18223242 5.4375 7.96484375 C5.74806058 13.02115811 4.26671229 16.0607293 1 20 C-2.69990228 21.84995114 -6.96167141 21.46986842 -11 21 C-14.55680172 18.89495409 -15.69468936 17.91593192 -17 14 C-17.46632277 9.25905184 -17.73805951 6.3550875 -14.6875 2.5625 C-10.18459828 -1.73096443 -5.7697888 -1.61675343 0 0 Z " fill="#FE6787" transform="translate(70,203)"/>
<path d="M0 0 C3.42215793 1.92885265 5.46291808 3.33142526 6.6953125 7.16015625 C7.28313201 10.90594227 7.27215819 13.34109071 5.8125 16.875 C2.60247767 20.63847445 1.2135049 21.86299138 -3.875 22.4375 C-8.14255061 22.28594213 -10.70519103 20.73228061 -14 18 C-15.84995114 14.30009772 -15.46986842 10.03832859 -15 6 C-11.479187 0.0510401 -6.67571461 -1.07063348 0 0 Z " fill="#FD4A86" transform="translate(303,53)"/>
<path d="M0 0 C3.58552881 1.63687185 4.79315055 2.68972583 7 6 C7.54602034 9.39107371 7.54627924 12.60874176 7 16 C4.80977082 18.82424288 3.16982793 20.41508603 0 22 C-4.93378393 22.49337839 -7.06919235 22.52463704 -11.4375 20.0625 C-14.73518395 16.12136552 -15.40632045 13.07900568 -15 8 C-12.10131796 0.98213822 -7.40154764 -1.10361048 0 0 Z " fill="#FD4A85" transform="translate(217,53)"/>
</svg>
